<svg id="Layer_1" data-name="Layer 1" xmlns="http://www.w3.org/2000/svg" viewBox="0 0 220 100"><defs><style>.cls-1{fill:#395980;}.cls-1,.cls-2{fill-rule:evenodd;}.cls-2{fill:#45b5d8;}</style></defs><title>[Teko] Logo</title><polygon class="cls-1" points="106.02 91.28 126.81 70.49 147.49 91.28 162.1 91.28 135.29 62.01 162.1 35.2 145.01 35.2 106.02 74.19 106.02 91.28"/><polygon class="cls-1" points="100.89 46.05 100.89 35.19 57.7 35.19 57.7 91.28 100.89 91.28 100.89 80.43 69.79 80.43 69.79 68.1 97.95 68.1 97.95 57.24 69.79 57.24 69.79 46.05 100.89 46.05"/><polygon class="cls-1" points="23 91.28 35.09 91.28 35.09 46.05 52.56 46.05 52.56 35.19 5.53 35.19 5.53 46.05 23 46.05 23 91.28"/><path class="cls-1" d="M186.3,46a17.28,17.28,0,0,1,17.26,17.26,17.26,17.26,0,1,1-34.52,0A17.17,17.17,0,0,1,186.3,46Zm0-10.84a26.84,26.84,0,0,0-19.81,8.29,27.08,27.08,0,0,0-8.29,19.81,27,27,0,0,0,8.29,19.81,27.83,27.83,0,0,0,39.63,0,26.61,26.61,0,0,0,8.35-19.81,26.86,26.86,0,0,0-8.35-19.81A27,27,0,0,0,186.3,35.14Z"/><path class="cls-2" d="M106,62l9.93-26.67L106,8.66,132.7,35.34Z"/></svg>